<?xml version="1.0" encoding="utf-8"?>
<!-- Generator: Adobe Illustrator 16.0.0, SVG Export Plug-In . SVG Version: 6.00 Build 0)  -->
<!DOCTYPE svg PUBLIC "-//W3C//DTD SVG 1.1//EN" "http://www.w3.org/Graphics/SVG/1.1/DTD/svg11.dtd">
<svg version="1.1" id="Calque_1" xmlns="http://www.w3.org/2000/svg" xmlns:xlink="http://www.w3.org/1999/xlink" x="0px" y="0px"
	 width="23.07px" height="23.07px" viewBox="0 0 23.07 23.07" enable-background="new 0 0 23.07 23.07" xml:space="preserve">
<path fill="#818285" d="M18.611,0H4.459C2,0,0,2,0,4.458v4.709v9.444c0,2.459,2,4.459,4.459,4.459h14.152
	c2.459,0,4.459-2,4.459-4.459V9.167V4.458C23.07,2,21.07,0,18.611,0 M19.89,2.658l0.51-0.002v0.509v3.402L16.504,6.58l-0.016-3.91
	L19.89,2.658z M8.242,9.167c0.738-1.021,1.938-1.691,3.292-1.691c1.354,0,2.555,0.671,3.292,1.691
	c0.482,0.668,0.771,1.483,0.771,2.368c0,2.238-1.822,4.06-4.062,4.06c-2.238,0-4.061-1.819-4.061-4.06
	C7.475,10.652,7.762,9.835,8.242,9.167 M20.822,18.613c0,1.219-0.99,2.209-2.211,2.209H4.459c-1.221,0-2.211-0.99-2.211-2.209V9.167
	h3.443c-0.298,0.731-0.465,1.53-0.465,2.368c0,3.479,2.829,6.31,6.308,6.31c3.479,0,6.309-2.831,6.309-6.31
	c0-0.838-0.168-1.637-0.465-2.368h3.443L20.822,18.613L20.822,18.613z"/>
</svg>
