<?xml version="1.0" encoding="utf-8"?>
<!-- Generator: Adobe Illustrator 16.0.0, SVG Export Plug-In . SVG Version: 6.00 Build 0)  -->
<!DOCTYPE svg PUBLIC "-//W3C//DTD SVG 1.1//EN" "http://www.w3.org/Graphics/SVG/1.1/DTD/svg11.dtd">
<svg version="1.1" id="Calque_1" xmlns="http://www.w3.org/2000/svg" xmlns:xlink="http://www.w3.org/1999/xlink" x="0px" y="0px"
	 width="23.109px" height="18.781px" viewBox="0 0 23.109 18.781" enable-background="new 0 0 23.109 18.781" xml:space="preserve">
<path fill="#818285" d="M23.111,2.224c-0.853,0.377-1.766,0.632-2.725,0.746c0.98-0.586,1.732-1.516,2.086-2.622
	c-0.918,0.543-1.931,0.938-3.013,1.148C18.597,0.576,17.364,0,15.999,0c-2.617,0-4.74,2.123-4.74,4.74
	c0,0.373,0.041,0.733,0.123,1.08C7.443,5.623,3.948,3.737,1.61,0.867C1.201,1.57,0.966,2.384,0.966,3.252
	c0,1.644,0.839,3.097,2.11,3.946C2.3,7.175,1.568,6.959,0.927,6.605v0.06c0,2.298,1.636,4.214,3.808,4.649
	c-0.397,0.11-0.817,0.166-1.25,0.166c-0.308,0-0.604-0.028-0.894-0.084c0.604,1.883,2.354,3.254,4.43,3.291
	c-1.623,1.271-3.668,2.028-5.889,2.028c-0.383,0-0.762-0.021-1.133-0.063c2.101,1.344,4.592,2.129,7.27,2.129
	c8.723,0,13.488-7.223,13.488-13.489c0-0.206-0.004-0.411-0.012-0.613C21.671,4.01,22.476,3.173,23.111,2.224"/>
</svg>
