<?xml version="1.0" encoding="utf-8"?>
<!-- Generator: Adobe Illustrator 16.0.0, SVG Export Plug-In . SVG Version: 6.00 Build 0)  -->
<!DOCTYPE svg PUBLIC "-//W3C//DTD SVG 1.1//EN" "http://www.w3.org/Graphics/SVG/1.1/DTD/svg11.dtd">
<svg version="1.1" id="Calque_1" xmlns="http://www.w3.org/2000/svg" xmlns:xlink="http://www.w3.org/1999/xlink" x="0px" y="0px"
	 width="20px" height="20px" viewBox="2.5 2.5 20 20" enable-background="new 2.5 2.5 20 20" xml:space="preserve">
<g>
	<g>
		<path fill="#818285" d="M10.449,16.486l-5.626,4.876c-0.515,0.446-1.301,0.389-1.748-0.126l-0.202-0.233
			c-0.445-0.516-0.389-1.3,0.124-1.746l5.669-4.913"/>
	</g>
	<path fill="#818285" d="M15.051,18.089c-4.074,0-7.377-3.302-7.377-7.376s3.302-7.376,7.377-7.376c4.073,0,7.377,3.302,7.377,7.376
		C22.428,14.786,19.125,18.089,15.051,18.089z M20.348,10.713c0-2.978-2.413-5.391-5.39-5.391c-2.978,0-5.39,2.414-5.39,5.391
		c0,2.976,2.414,5.389,5.39,5.389C17.934,16.102,20.348,13.689,20.348,10.713z"/>
</g>
</svg>
