<?xml version="1.0" encoding="utf-8"?>
<!-- Generator: Adobe Illustrator 16.0.0, SVG Export Plug-In . SVG Version: 6.00 Build 0)  -->
<!DOCTYPE svg PUBLIC "-//W3C//DTD SVG 1.1//EN" "http://www.w3.org/Graphics/SVG/1.1/DTD/svg11.dtd">
<svg version="1.1" id="Calque_1" xmlns="http://www.w3.org/2000/svg" xmlns:xlink="http://www.w3.org/1999/xlink" x="0px" y="0px"
	 width="115px" height="64px" viewBox="-9.686 -5.212 115 64" enable-background="new -9.686 -5.212 115 64" xml:space="preserve">
<g>
	<g>
		<defs>
			<rect id="SVGID_1_" x="-9.686" y="-5.426" width="115" height="64.427"/>
		</defs>
		<clipPath id="SVGID_2_">
			<use xlink:href="#SVGID_1_"  overflow="visible"/>
		</clipPath>
		<path clip-path="url(#SVGID_2_)" fill="#4B2A00" d="M22.75,34.505c2.938,0,5.315-2.311,5.315-6.438
			c0-4.159-2.377-6.471-5.315-6.471s-5.317,2.312-5.317,6.471C17.433,32.195,19.812,34.505,22.75,34.505 M22.75,19.123
			c5.414,0,8.286,3.929,8.286,8.946c0,4.985-2.872,8.915-8.286,8.915c-5.415,0-8.287-3.932-8.287-8.915
			C14.463,23.051,17.335,19.123,22.75,19.123"/>
	</g>
	<g>
		<defs>
			<rect id="SVGID_3_" x="-9.686" y="-5.426" width="115" height="64.427"/>
		</defs>
		<clipPath id="SVGID_4_">
			<use xlink:href="#SVGID_3_"  overflow="visible"/>
		</clipPath>
		<path clip-path="url(#SVGID_4_)" fill="#4B2A00" d="M34.183,10.812c0,0,2.807,1.477,2.807,4.403v21.372h-2.807V10.812z"/>
	</g>
	<g>
		<defs>
			<rect id="SVGID_5_" x="-9.686" y="-5.426" width="115" height="64.427"/>
		</defs>
		<clipPath id="SVGID_6_">
			<use xlink:href="#SVGID_5_"  overflow="visible"/>
		</clipPath>
		<path clip-path="url(#SVGID_6_)" fill="#4B2A00" d="M55.049,36.587c0,0-2.641-1.135-2.641-2.708h-0.069
			c-1.187,2.113-3.101,3.104-5.545,3.104c-4.49,0-5.876-2.577-5.876-6.241V19.519c0,0,2.806,0.906,2.806,3.618v7.937
			c0,2.079,1.323,3.432,3.465,3.432c3.399,0,5.051-2.278,5.051-5.348v-6.339c0-2.393,2.809-3.301,2.809-3.301L55.049,36.587
			L55.049,36.587z"/>
	</g>
	<g>
		<defs>
			<rect id="SVGID_7_" x="-9.686" y="-5.426" width="115" height="64.427"/>
		</defs>
		<clipPath id="SVGID_8_">
			<use xlink:href="#SVGID_7_"  overflow="visible"/>
		</clipPath>
		<path clip-path="url(#SVGID_8_)" fill="#4B2A00" d="M66.939,21.598c-3.766,0-5.217,3.236-5.217,6.439
			c0,3.365,1.519,6.471,5.38,6.471c3.829,0,5.118-3.271,5.118-6.605C72.221,24.7,70.569,21.598,66.939,21.598 M59.014,19.519
			c0,0,2.807,0.693,2.807,2.309h0.068c0.924-1.878,3.103-2.705,5.444-2.705c5.25,0,7.857,4.159,7.857,8.98
			c0,4.819-2.573,8.88-7.792,8.88c-1.747,0-4.259-0.659-5.51-2.675h-0.069v6.614c0,2.549-2.808,3.3-2.808,3.3V19.519H59.014z"/>
	</g>
	<g>
		<defs>
			<rect id="SVGID_9_" x="-9.686" y="-5.426" width="115" height="64.427"/>
		</defs>
		<clipPath id="SVGID_10_">
			<use xlink:href="#SVGID_9_"  overflow="visible"/>
		</clipPath>
		<path clip-path="url(#SVGID_10_)" fill="#4B2A00" d="M81.369,19.519h4.988c0,0-1.327,2.474-3.257,2.474h-1.731V32.59
			c0,1.288,0.363,1.521,2.113,1.521h1.287v2.477h-2.145c-2.908,0-4.062-0.596-4.062-3.73V21.993h-2.906v-2.474h2.906v-2.07
			c0-2.949,2.807-4.149,2.807-4.149V19.519z"/>
	</g>
	<g>
		<defs>
			<rect id="SVGID_11_" x="-9.686" y="-5.426" width="115" height="64.427"/>
		</defs>
		<clipPath id="SVGID_12_">
			<use xlink:href="#SVGID_11_"  overflow="visible"/>
		</clipPath>
		<path clip-path="url(#SVGID_12_)" fill="#4B2A00" d="M98.255,27.772c-1.086,0.791-3.197,0.824-5.082,1.154
			c-1.849,0.327-3.435,0.99-3.435,3.073c0,1.846,1.586,2.506,3.302,2.506c3.696,0,5.215-2.311,5.215-3.861V27.772z M102.812,36.519
			c-0.494,0.298-1.121,0.464-2.013,0.464c-1.452,0-2.38-0.791-2.38-2.642c-1.551,1.818-3.629,2.642-6.009,2.642
			c-3.101,0-5.642-1.387-5.642-4.786c0-3.863,2.873-4.688,5.774-5.249c3.105-0.595,5.746-0.397,5.746-2.511
			c0-2.442-2.015-2.838-3.798-2.838c-1.773,0-3.066,0.47-3.845,1.663c-0.97,1.495-3.218,1.573-3.218,1.573
			c0.164-4.228,3.432-5.712,7.229-5.712c3.073,0,6.405,0.693,6.405,4.689v8.779c0,1.322,0,1.917,0.891,1.917
			c0.231,0,0.494-0.033,0.857-0.167V36.519z"/>
	</g>
	<g>
		<defs>
			<rect id="SVGID_13_" x="-9.686" y="-5.426" width="115" height="64.427"/>
		</defs>
		<clipPath id="SVGID_14_">
			<use xlink:href="#SVGID_13_"  overflow="visible"/>
		</clipPath>
		<path clip-path="url(#SVGID_14_)" fill="#4B2A00" d="M55.547-5.42C44.399-4.515,34.796-1.55,25.939,5.528
			C17.752,12.073,9.055,20.739,5.021,30.839C3.957,28.077-2.966,14.741-5.441,11.174c-0.327-0.472-1.053-0.063-0.775,0.453
			c2.258,4.205,9.305,20.303,9.763,24.554c0.155,1.446,2.413,1.291,2.76,0c2.685-10.04,11.271-20.166,19.098-27.152
			C34.357,1.039,43.151-2.646,55.753-4.22C56.603-4.327,56.834-5.523,55.547-5.42"/>
	</g>
</g>
<polygon fill="#808285" points="-3.363,46.915 -3.363,54.02 -3.386,54.02 -8.146,46.915 -9.686,46.915 -9.686,55.56 -8.513,55.56 
	-8.513,48.455 -8.488,48.455 -3.679,55.56 -2.189,55.56 -2.189,46.915 "/>
<g>
	<g>
		<defs>
			<rect id="SVGID_15_" x="-9.686" y="-5.426" width="115" height="64.427"/>
		</defs>
		<clipPath id="SVGID_16_">
			<use xlink:href="#SVGID_15_"  overflow="visible"/>
		</clipPath>
		<path clip-path="url(#SVGID_16_)" fill="#808285" d="M4.847,55.56H3.748v-0.892H3.724c-0.138,0.309-0.379,0.56-0.721,0.752
			c-0.341,0.188-0.737,0.285-1.184,0.285c-0.284,0-0.553-0.042-0.805-0.128C0.762,55.495,0.54,55.36,0.349,55.18
			c-0.191-0.177-0.344-0.408-0.459-0.687c-0.112-0.282-0.171-0.615-0.171-0.996v-3.727h1.1v3.422c0,0.268,0.036,0.497,0.11,0.687
			c0.074,0.191,0.172,0.347,0.293,0.466c0.122,0.118,0.262,0.202,0.421,0.257c0.159,0.052,0.323,0.077,0.496,0.077
			c0.226,0,0.438-0.035,0.633-0.109c0.195-0.074,0.367-0.19,0.514-0.349c0.146-0.16,0.259-0.359,0.341-0.604
			c0.081-0.244,0.122-0.531,0.122-0.867v-2.979h1.099V55.56z"/>
	</g>
	<g>
		<defs>
			<rect id="SVGID_17_" x="-9.686" y="-5.426" width="115" height="64.427"/>
		</defs>
		<clipPath id="SVGID_18_">
			<use xlink:href="#SVGID_17_"  overflow="visible"/>
		</clipPath>
		<path clip-path="url(#SVGID_18_)" fill="#808285" d="M9.736,50.724H8.162v2.626c0,0.162,0.004,0.324,0.012,0.48
			c0.008,0.16,0.038,0.302,0.091,0.428c0.054,0.125,0.135,0.226,0.245,0.306C8.62,54.639,8.78,54.68,8.991,54.68
			c0.13,0,0.265-0.013,0.403-0.036c0.138-0.026,0.264-0.069,0.379-0.134v1c-0.13,0.073-0.3,0.124-0.508,0.153
			c-0.207,0.028-0.368,0.042-0.481,0.042c-0.423,0-0.752-0.059-0.984-0.176c-0.232-0.118-0.401-0.272-0.512-0.458
			c-0.111-0.188-0.176-0.397-0.195-0.63c-0.021-0.23-0.031-0.465-0.031-0.702v-3.015h-1.27v-0.954h1.27v-1.624h1.099v1.624h1.574
			V50.724z"/>
	</g>
	<g>
		<defs>
			<rect id="SVGID_19_" x="-9.686" y="-5.426" width="115" height="64.427"/>
		</defs>
		<clipPath id="SVGID_20_">
			<use xlink:href="#SVGID_19_"  overflow="visible"/>
		</clipPath>
		<path clip-path="url(#SVGID_20_)" fill="#808285" d="M10.998,49.771h1.099v0.892h0.024c0.074-0.155,0.171-0.295,0.294-0.42
			c0.122-0.127,0.257-0.235,0.407-0.325c0.152-0.089,0.316-0.161,0.496-0.213c0.178-0.054,0.358-0.081,0.537-0.081
			c0.179,0,0.343,0.024,0.489,0.074l-0.049,1.184c-0.09-0.026-0.179-0.045-0.268-0.062c-0.09-0.016-0.179-0.023-0.269-0.023
			c-0.538,0-0.948,0.15-1.233,0.451c-0.285,0.301-0.427,0.77-0.427,1.404v2.905h-1.099V49.771z"/>
	</g>
	<g>
		<defs>
			<rect id="SVGID_21_" x="-9.686" y="-5.426" width="115" height="64.427"/>
		</defs>
		<clipPath id="SVGID_22_">
			<use xlink:href="#SVGID_21_"  overflow="visible"/>
		</clipPath>
		<path clip-path="url(#SVGID_22_)" fill="#808285" d="M15.5,49.771h1.098v5.786H15.5V49.771z M15.244,47.697
			c0-0.219,0.079-0.409,0.238-0.566c0.159-0.161,0.347-0.239,0.567-0.239s0.409,0.078,0.568,0.239
			c0.158,0.157,0.238,0.348,0.238,0.566c0,0.221-0.08,0.41-0.238,0.568c-0.159,0.158-0.348,0.236-0.568,0.236
			s-0.409-0.078-0.567-0.236C15.323,48.107,15.244,47.916,15.244,47.697"/>
	</g>
	<g>
		<defs>
			<rect id="SVGID_23_" x="-9.686" y="-5.426" width="115" height="64.427"/>
		</defs>
		<clipPath id="SVGID_24_">
			<use xlink:href="#SVGID_23_"  overflow="visible"/>
		</clipPath>
		<path clip-path="url(#SVGID_24_)" fill="#808285" d="M21.523,50.724h-1.574v2.626c0,0.162,0.002,0.324,0.012,0.48
			c0.009,0.16,0.038,0.302,0.092,0.428c0.053,0.125,0.133,0.226,0.244,0.306c0.11,0.075,0.271,0.116,0.482,0.116
			c0.13,0,0.263-0.013,0.403-0.036c0.139-0.026,0.265-0.069,0.379-0.134v1c-0.131,0.073-0.299,0.124-0.507,0.153
			c-0.207,0.028-0.368,0.042-0.481,0.042c-0.424,0-0.751-0.059-0.984-0.176c-0.232-0.118-0.403-0.272-0.512-0.458
			c-0.11-0.188-0.176-0.397-0.196-0.63c-0.021-0.23-0.03-0.465-0.03-0.702v-3.015h-1.27v-0.954h1.27v-1.624h1.099v1.624h1.574
			V50.724z"/>
	</g>
	<g>
		<defs>
			<rect id="SVGID_25_" x="-9.686" y="-5.426" width="115" height="64.427"/>
		</defs>
		<clipPath id="SVGID_26_">
			<use xlink:href="#SVGID_25_"  overflow="visible"/>
		</clipPath>
		<path clip-path="url(#SVGID_26_)" fill="#808285" d="M22.826,49.771h1.098v5.786h-1.098V49.771z M22.569,47.697
			c0-0.219,0.08-0.409,0.237-0.566c0.16-0.161,0.35-0.239,0.569-0.239s0.409,0.078,0.567,0.239c0.159,0.157,0.238,0.348,0.238,0.566
			c0,0.221-0.079,0.41-0.238,0.568c-0.159,0.158-0.349,0.236-0.567,0.236s-0.409-0.078-0.569-0.236
			C22.649,48.107,22.569,47.916,22.569,47.697"/>
	</g>
	<g>
		<defs>
			<rect id="SVGID_27_" x="-9.686" y="-5.426" width="115" height="64.427"/>
		</defs>
		<clipPath id="SVGID_28_">
			<use xlink:href="#SVGID_27_"  overflow="visible"/>
		</clipPath>
		<path clip-path="url(#SVGID_28_)" fill="#808285" d="M26.486,52.667c0,0.293,0.045,0.562,0.135,0.812
			c0.089,0.249,0.215,0.459,0.378,0.635c0.163,0.177,0.361,0.312,0.598,0.415c0.236,0.102,0.5,0.152,0.792,0.152
			c0.293,0,0.558-0.051,0.795-0.152c0.236-0.103,0.434-0.238,0.597-0.415c0.164-0.176,0.289-0.386,0.378-0.635
			c0.09-0.249,0.135-0.519,0.135-0.812s-0.044-0.563-0.135-0.812c-0.089-0.249-0.214-0.458-0.378-0.635
			c-0.163-0.174-0.361-0.314-0.597-0.415c-0.237-0.102-0.501-0.153-0.795-0.153c-0.292,0-0.557,0.052-0.792,0.153
			c-0.237,0.101-0.435,0.241-0.598,0.415c-0.163,0.177-0.289,0.386-0.378,0.635C26.531,52.103,26.486,52.373,26.486,52.667
			 M25.314,52.667c0-0.423,0.081-0.817,0.238-1.184c0.159-0.367,0.377-0.688,0.653-0.966c0.278-0.274,0.603-0.494,0.978-0.653
			c0.373-0.157,0.777-0.238,1.207-0.238c0.432,0,0.834,0.081,1.209,0.238c0.374,0.159,0.7,0.376,0.977,0.653
			c0.277,0.277,0.495,0.599,0.653,0.966c0.158,0.366,0.238,0.761,0.238,1.184s-0.08,0.819-0.238,1.19
			c-0.159,0.37-0.376,0.69-0.653,0.964c-0.276,0.274-0.603,0.488-0.977,0.647c-0.375,0.157-0.778,0.237-1.209,0.237
			c-0.43,0-0.834-0.08-1.207-0.237c-0.375-0.159-0.7-0.376-0.978-0.647c-0.276-0.273-0.494-0.594-0.653-0.964
			C25.395,53.485,25.314,53.089,25.314,52.667"/>
	</g>
	<g>
		<defs>
			<rect id="SVGID_29_" x="-9.686" y="-5.426" width="115" height="64.427"/>
		</defs>
		<clipPath id="SVGID_30_">
			<use xlink:href="#SVGID_29_"  overflow="visible"/>
		</clipPath>
		<path clip-path="url(#SVGID_30_)" fill="#808285" d="M32.854,49.771h1.098v0.892h0.024c0.139-0.31,0.379-0.559,0.721-0.75
			c0.342-0.191,0.737-0.288,1.184-0.288c0.277,0,0.544,0.044,0.8,0.129c0.256,0.085,0.48,0.218,0.672,0.397
			c0.191,0.177,0.344,0.408,0.457,0.69c0.114,0.278,0.172,0.61,0.172,0.993v3.723h-1.099V52.14c0-0.269-0.038-0.498-0.11-0.688
			c-0.075-0.191-0.171-0.345-0.293-0.465c-0.123-0.118-0.263-0.204-0.422-0.256c-0.157-0.054-0.322-0.08-0.494-0.08
			c-0.228,0-0.439,0.035-0.635,0.11c-0.195,0.073-0.366,0.19-0.513,0.349c-0.147,0.159-0.261,0.359-0.341,0.604
			c-0.082,0.243-0.123,0.535-0.123,0.867v2.979h-1.098V49.771z"/>
	</g>
	<g>
		<defs>
			<rect id="SVGID_31_" x="-9.686" y="-5.426" width="115" height="64.427"/>
		</defs>
		<clipPath id="SVGID_32_">
			<use xlink:href="#SVGID_31_"  overflow="visible"/>
		</clipPath>
		<path clip-path="url(#SVGID_32_)" fill="#808285" d="M46.038,54.679c0.293,0,0.558-0.051,0.794-0.152
			c0.235-0.103,0.435-0.237,0.599-0.416c0.163-0.175,0.287-0.387,0.377-0.634c0.09-0.249,0.134-0.52,0.134-0.812
			c0-0.294-0.044-0.565-0.134-0.814c-0.09-0.246-0.216-0.458-0.377-0.633c-0.164-0.175-0.364-0.313-0.599-0.417
			c-0.236-0.101-0.5-0.152-0.794-0.152s-0.558,0.052-0.794,0.152c-0.235,0.104-0.435,0.242-0.597,0.417
			c-0.164,0.175-0.289,0.387-0.379,0.633c-0.089,0.249-0.134,0.521-0.134,0.814c0,0.292,0.045,0.562,0.134,0.812
			c0.09,0.247,0.215,0.46,0.379,0.634c0.162,0.176,0.362,0.313,0.597,0.416C45.481,54.628,45.744,54.679,46.038,54.679
			 M43.035,46.33h1.099v4.272h0.024c0.195-0.301,0.476-0.538,0.842-0.714c0.366-0.176,0.757-0.263,1.173-0.263
			c0.447,0,0.851,0.077,1.214,0.231c0.361,0.154,0.671,0.369,0.927,0.642c0.254,0.272,0.454,0.594,0.592,0.964
			c0.138,0.372,0.207,0.771,0.207,1.203c0,0.431-0.069,0.83-0.207,1.196c-0.139,0.365-0.338,0.686-0.592,0.964
			c-0.257,0.276-0.566,0.492-0.927,0.646c-0.363,0.154-0.769,0.233-1.214,0.233c-0.391,0-0.771-0.087-1.142-0.259
			c-0.371-0.171-0.661-0.409-0.873-0.72h-0.024v0.83h-1.099V46.33z"/>
	</g>
	<g>
		<defs>
			<rect id="SVGID_33_" x="-9.686" y="-5.426" width="115" height="64.427"/>
		</defs>
		<clipPath id="SVGID_34_">
			<use xlink:href="#SVGID_33_"  overflow="visible"/>
		</clipPath>
		<path clip-path="url(#SVGID_34_)" fill="#808285" d="M49.6,49.771h1.271l1.715,4.519h0.023l1.643-4.519h1.174l-2.746,7.034
			c-0.099,0.251-0.199,0.479-0.306,0.688c-0.103,0.207-0.229,0.386-0.375,0.531c-0.147,0.147-0.322,0.261-0.529,0.343
			c-0.206,0.08-0.46,0.122-0.761,0.122c-0.162,0-0.325-0.011-0.491-0.03c-0.168-0.021-0.326-0.064-0.479-0.128l0.135-1.001
			c0.217,0.088,0.435,0.135,0.653,0.135c0.17,0,0.313-0.024,0.43-0.067c0.119-0.047,0.221-0.112,0.303-0.197
			c0.086-0.085,0.157-0.184,0.214-0.296c0.057-0.116,0.113-0.245,0.17-0.393l0.356-0.916L49.6,49.771z"/>
	</g>
	<g>
		<defs>
			<rect id="SVGID_35_" x="-9.686" y="-5.426" width="115" height="64.427"/>
		</defs>
		<clipPath id="SVGID_36_">
			<use xlink:href="#SVGID_35_"  overflow="visible"/>
		</clipPath>
		<path clip-path="url(#SVGID_36_)" fill="#808285" d="M62.783,50.651c-0.294,0-0.558,0.052-0.792,0.153
			c-0.235,0.103-0.436,0.241-0.599,0.415c-0.164,0.177-0.288,0.386-0.378,0.635c-0.091,0.249-0.134,0.52-0.134,0.812
			s0.043,0.562,0.134,0.812c0.09,0.248,0.216,0.46,0.378,0.634s0.363,0.312,0.599,0.416c0.234,0.101,0.498,0.151,0.792,0.151
			s0.557-0.051,0.794-0.151c0.236-0.104,0.436-0.239,0.599-0.416c0.162-0.176,0.288-0.386,0.376-0.634
			c0.089-0.25,0.136-0.52,0.136-0.812s-0.047-0.563-0.136-0.812c-0.088-0.249-0.214-0.458-0.376-0.635
			c-0.163-0.174-0.362-0.312-0.599-0.415C63.34,50.703,63.077,50.651,62.783,50.651 M59.781,49.771h1.097v0.831h0.026
			c0.212-0.311,0.504-0.55,0.873-0.722c0.369-0.171,0.751-0.257,1.142-0.257c0.448,0,0.852,0.079,1.215,0.233
			c0.361,0.154,0.672,0.369,0.929,0.646c0.255,0.274,0.453,0.601,0.591,0.97c0.139,0.371,0.207,0.768,0.207,1.19
			c0,0.433-0.068,0.832-0.207,1.203c-0.138,0.37-0.336,0.69-0.591,0.964c-0.26,0.273-0.567,0.487-0.929,0.642
			c-0.363,0.153-0.767,0.231-1.215,0.231c-0.415,0-0.806-0.087-1.174-0.264c-0.364-0.176-0.646-0.413-0.841-0.714h-0.026v4.272
			h-1.097V49.771z"/>
	</g>
</g>
<rect x="67.307" y="46.33" fill="#808285" width="1.097" height="9.23"/>
<g>
	<g>
		<defs>
			<rect id="SVGID_37_" x="-9.305" y="-5.213" width="114.238" height="64"/>
		</defs>
		<clipPath id="SVGID_38_">
			<use xlink:href="#SVGID_37_"  overflow="visible"/>
		</clipPath>
		<path clip-path="url(#SVGID_38_)" fill="#808285" d="M74.279,52.022c-0.009-0.244-0.046-0.466-0.115-0.668
			c-0.068-0.201-0.171-0.378-0.312-0.527c-0.135-0.149-0.308-0.267-0.513-0.353c-0.208-0.084-0.448-0.126-0.722-0.126
			c-0.269,0-0.513,0.052-0.732,0.151c-0.224,0.102-0.412,0.232-0.564,0.395c-0.153,0.161-0.273,0.341-0.359,0.539
			c-0.083,0.198-0.127,0.395-0.127,0.589H74.279L74.279,52.022z M70.835,52.895c0,0.251,0.056,0.479,0.165,0.685
			c0.109,0.207,0.254,0.38,0.431,0.527c0.179,0.145,0.383,0.26,0.619,0.338c0.234,0.083,0.476,0.124,0.727,0.124
			c0.338,0,0.634-0.079,0.886-0.237c0.249-0.157,0.479-0.367,0.69-0.624l0.825,0.631c-0.61,0.784-1.457,1.176-2.547,1.176
			c-0.454,0-0.864-0.077-1.232-0.23c-0.368-0.152-0.679-0.364-0.934-0.636c-0.254-0.272-0.45-0.59-0.588-0.959
			c-0.138-0.368-0.207-0.767-0.207-1.194c0-0.43,0.075-0.826,0.225-1.194c0.15-0.369,0.358-0.688,0.62-0.959s0.574-0.482,0.94-0.634
			c0.363-0.154,0.759-0.233,1.187-0.233c0.509,0,0.939,0.09,1.293,0.27c0.35,0.177,0.639,0.41,0.866,0.696
			c0.226,0.287,0.389,0.61,0.491,0.97c0.102,0.359,0.152,0.726,0.152,1.097v0.389H70.835z"/>
	</g>
	<g>
		<defs>
			<rect id="SVGID_39_" x="-9.305" y="-5.213" width="114.238" height="64"/>
		</defs>
		<clipPath id="SVGID_40_">
			<use xlink:href="#SVGID_39_"  overflow="visible"/>
		</clipPath>
		<path clip-path="url(#SVGID_40_)" fill="#808285" d="M79.811,52.604c-0.262,0-0.524,0.013-0.797,0.041
			c-0.271,0.029-0.517,0.083-0.739,0.163c-0.222,0.082-0.403,0.194-0.546,0.34c-0.14,0.146-0.213,0.332-0.213,0.558
			c0,0.333,0.112,0.571,0.334,0.716c0.222,0.147,0.522,0.22,0.903,0.22c0.299,0,0.554-0.051,0.766-0.151
			c0.209-0.1,0.379-0.231,0.511-0.394c0.128-0.161,0.222-0.343,0.277-0.541c0.057-0.196,0.084-0.393,0.084-0.587v-0.363
			L79.811,52.604L79.811,52.604z M76.728,50.323c0.308-0.282,0.665-0.494,1.068-0.635c0.405-0.142,0.809-0.215,1.212-0.215
			c0.422,0,0.785,0.054,1.087,0.159c0.304,0.104,0.552,0.247,0.745,0.424c0.193,0.178,0.338,0.381,0.431,0.613
			c0.091,0.229,0.138,0.473,0.138,0.722v2.936c0,0.201,0.005,0.387,0.016,0.558c0.006,0.17,0.018,0.331,0.033,0.485h-0.97
			c-0.024-0.292-0.036-0.583-0.036-0.874h-0.025c-0.24,0.372-0.528,0.636-0.861,0.788c-0.332,0.153-0.716,0.23-1.152,0.23
			c-0.266,0-0.52-0.036-0.764-0.109c-0.242-0.073-0.455-0.183-0.637-0.327s-0.324-0.324-0.429-0.54
			c-0.107-0.214-0.158-0.463-0.158-0.744c0-0.372,0.082-0.686,0.247-0.936c0.168-0.25,0.392-0.454,0.68-0.611
			c0.285-0.158,0.622-0.272,1.005-0.34c0.386-0.069,0.795-0.104,1.232-0.104h0.801v-0.241c0-0.146-0.029-0.292-0.086-0.437
			c-0.055-0.147-0.142-0.276-0.255-0.394c-0.111-0.119-0.254-0.212-0.423-0.28c-0.171-0.068-0.373-0.104-0.607-0.104
			c-0.21,0-0.394,0.021-0.55,0.062c-0.16,0.04-0.302,0.091-0.432,0.151c-0.129,0.059-0.247,0.132-0.351,0.211
			c-0.107,0.082-0.208,0.158-0.304,0.231L76.728,50.323z"/>
	</g>
	<g>
		<defs>
			<rect id="SVGID_41_" x="-9.305" y="-5.213" width="114.238" height="64"/>
		</defs>
		<clipPath id="SVGID_42_">
			<use xlink:href="#SVGID_41_"  overflow="visible"/>
		</clipPath>
		<path clip-path="url(#SVGID_42_)" fill="#808285" d="M86.082,51.062c-0.131-0.161-0.29-0.296-0.481-0.405
			c-0.187-0.11-0.422-0.164-0.695-0.164c-0.259,0-0.483,0.054-0.672,0.164c-0.191,0.109-0.285,0.268-0.285,0.479
			c0,0.17,0.055,0.308,0.164,0.412c0.109,0.105,0.238,0.192,0.388,0.256c0.148,0.064,0.31,0.112,0.478,0.145
			c0.17,0.031,0.317,0.061,0.438,0.086c0.232,0.055,0.456,0.124,0.661,0.204c0.205,0.082,0.384,0.188,0.535,0.316
			c0.148,0.13,0.266,0.287,0.351,0.473c0.083,0.188,0.125,0.414,0.125,0.679c0,0.324-0.068,0.603-0.205,0.832
			c-0.138,0.229-0.316,0.419-0.534,0.563c-0.218,0.146-0.467,0.252-0.747,0.315c-0.275,0.066-0.558,0.098-0.841,0.098
			c-0.477,0-0.896-0.074-1.257-0.22c-0.359-0.146-0.679-0.412-0.963-0.799l0.824-0.681c0.176,0.179,0.375,0.335,0.594,0.474
			c0.22,0.138,0.485,0.207,0.801,0.207c0.138,0,0.275-0.014,0.419-0.043c0.142-0.028,0.267-0.072,0.374-0.133
			c0.112-0.062,0.198-0.137,0.269-0.229c0.069-0.093,0.103-0.201,0.103-0.323c0-0.161-0.051-0.294-0.15-0.399
			c-0.102-0.105-0.226-0.187-0.364-0.25c-0.142-0.061-0.291-0.109-0.451-0.145c-0.157-0.038-0.295-0.066-0.418-0.089
			c-0.233-0.059-0.455-0.124-0.666-0.194c-0.212-0.073-0.396-0.172-0.559-0.292c-0.161-0.122-0.29-0.274-0.388-0.461
			c-0.097-0.186-0.145-0.418-0.145-0.69c0-0.301,0.061-0.562,0.187-0.783c0.124-0.223,0.292-0.405,0.499-0.552
			c0.204-0.146,0.439-0.254,0.703-0.326c0.261-0.073,0.526-0.111,0.794-0.111c0.387,0,0.76,0.074,1.117,0.219
			c0.354,0.147,0.636,0.39,0.847,0.729L86.082,51.062z"/>
	</g>
	<g>
		<defs>
			<rect id="SVGID_43_" x="-9.305" y="-5.213" width="114.238" height="64"/>
		</defs>
		<clipPath id="SVGID_44_">
			<use xlink:href="#SVGID_43_"  overflow="visible"/>
		</clipPath>
		<path clip-path="url(#SVGID_44_)" fill="#808285" d="M93.451,55.37H92.36v-0.886h-0.023c-0.139,0.307-0.376,0.556-0.717,0.747
			c-0.34,0.188-0.731,0.283-1.176,0.283c-0.282,0-0.549-0.042-0.8-0.127c-0.251-0.083-0.472-0.217-0.663-0.396
			c-0.189-0.175-0.341-0.405-0.452-0.682c-0.114-0.28-0.172-0.611-0.172-0.989v-3.702h1.091v3.399c0,0.266,0.037,0.494,0.109,0.682
			c0.074,0.19,0.171,0.345,0.292,0.463c0.121,0.117,0.261,0.201,0.417,0.255c0.159,0.052,0.323,0.077,0.493,0.077
			c0.225,0,0.437-0.035,0.629-0.108c0.193-0.074,0.364-0.189,0.511-0.347c0.146-0.159,0.258-0.357,0.34-0.6
			c0.078-0.242,0.121-0.527,0.121-0.861v-2.96h1.091V55.37L93.451,55.37z"/>
	</g>
	<g>
		<defs>
			<rect id="SVGID_45_" x="-9.305" y="-5.213" width="114.238" height="64"/>
		</defs>
		<clipPath id="SVGID_46_">
			<use xlink:href="#SVGID_45_"  overflow="visible"/>
		</clipPath>
		<path clip-path="url(#SVGID_46_)" fill="#808285" d="M95.131,49.619h1.09v0.886h0.023c0.075-0.154,0.172-0.293,0.292-0.417
			c0.122-0.126,0.257-0.233,0.406-0.323s0.314-0.16,0.492-0.211c0.178-0.054,0.354-0.081,0.533-0.081
			c0.176,0,0.339,0.024,0.485,0.074l-0.049,1.176c-0.089-0.026-0.179-0.045-0.268-0.062c-0.089-0.016-0.177-0.023-0.269-0.023
			c-0.531,0-0.94,0.149-1.222,0.448c-0.283,0.299-0.426,0.765-0.426,1.396v2.886h-1.09V49.619L95.131,49.619z"/>
	</g>
	<g>
		<defs>
			<rect id="SVGID_47_" x="-9.305" y="-5.213" width="114.238" height="64"/>
		</defs>
		<clipPath id="SVGID_48_">
			<use xlink:href="#SVGID_47_"  overflow="visible"/>
		</clipPath>
		<path clip-path="url(#SVGID_48_)" fill="#808285" d="M103.767,52.022c-0.007-0.244-0.047-0.466-0.113-0.668
			c-0.068-0.201-0.173-0.378-0.31-0.527s-0.311-0.267-0.518-0.353c-0.204-0.084-0.445-0.126-0.721-0.126
			c-0.269,0-0.511,0.052-0.732,0.151c-0.223,0.102-0.413,0.232-0.565,0.395c-0.153,0.161-0.274,0.341-0.356,0.539
			c-0.086,0.198-0.129,0.395-0.129,0.589H103.767L103.767,52.022z M100.325,52.895c0,0.251,0.054,0.479,0.163,0.685
			c0.11,0.207,0.254,0.38,0.43,0.527c0.18,0.145,0.387,0.26,0.619,0.338c0.235,0.083,0.478,0.124,0.729,0.124
			c0.339,0,0.634-0.079,0.884-0.237c0.25-0.157,0.481-0.367,0.69-0.624l0.824,0.631c-0.606,0.784-1.453,1.176-2.546,1.176
			c-0.452,0-0.864-0.077-1.23-0.23c-0.37-0.152-0.679-0.364-0.933-0.636c-0.257-0.272-0.452-0.59-0.587-0.959
			c-0.141-0.368-0.208-0.767-0.208-1.194c0-0.43,0.075-0.826,0.225-1.194c0.149-0.369,0.356-0.688,0.619-0.959
			s0.575-0.482,0.938-0.634c0.367-0.154,0.761-0.233,1.189-0.233c0.51,0,0.939,0.09,1.291,0.27c0.353,0.177,0.64,0.41,0.868,0.696
			c0.227,0.287,0.389,0.61,0.491,0.97c0.1,0.359,0.151,0.726,0.151,1.097v0.389H100.325z"/>
	</g>
</g>
</svg>
