<svg id="Layer_1" data-name="Layer 1" xmlns="http://www.w3.org/2000/svg" viewBox="0 0 113.8 62"><defs><style>.cls-1{fill:#46968f;}.cls-2{fill:#404041;}</style></defs><title>Volupta Logo</title><g id="_Group_" data-name="&lt;Group&gt;"><path id="_Compound_Path_" data-name="&lt;Compound Path&gt;" class="cls-1" d="M30.86,26.59c5.64,0,8.63,4.09,8.63,9.32s-3,9.29-8.63,9.29-8.64-4.09-8.64-9.29S25.21,26.59,30.86,26.59Zm0,16c3.06,0,5.54-2.41,5.54-6.71s-2.48-6.74-5.54-6.74-5.54,2.41-5.54,6.74S27.79,42.62,30.86,42.62Z" transform="translate(-0.6 -1)"/><path id="_Compound_Path_2" data-name="&lt;Compound Path&gt;" class="cls-1" d="M42.77,17.93s2.93,1.54,2.93,4.58V44.79H42.77Z" transform="translate(-0.6 -1)"/><path id="_Compound_Path_3" data-name="&lt;Compound Path&gt;" class="cls-1" d="M64.52,44.79S61.77,43.61,61.77,42H61.7a6.19,6.19,0,0,1-5.78,3.23c-4.68,0-6.13-2.68-6.13-6.5V27s2.93.95,2.93,3.77v8.28a3.35,3.35,0,0,0,3.61,3.57c3.55,0,5.27-2.37,5.27-5.57V30.44C61.6,28,64.52,27,64.52,27Z" transform="translate(-0.6 -1)"/><path id="_Compound_Path_4" data-name="&lt;Compound Path&gt;" class="cls-1" d="M68.66,27s2.92.72,2.92,2.41h.07c1-2,3.24-2.82,5.68-2.82,5.47,0,8.19,4.33,8.19,9.36S82.84,45.2,77.4,45.2c-1.82,0-4.44-.68-5.75-2.78h-.07v6.89c0,2.66-2.92,3.44-2.92,3.44Zm8.26,2.17c-3.92,0-5.44,3.37-5.44,6.71,0,3.51,1.58,6.74,5.61,6.74s5.33-3.4,5.33-6.88S80.7,29.17,76.92,29.17Z" transform="translate(-0.6 -1)"/><path id="_Compound_Path_5" data-name="&lt;Compound Path&gt;" class="cls-1" d="M92,27h5.2s-1.38,2.58-3.4,2.58H92V40.63c0,1.34.38,1.58,2.2,1.58H95.5v2.58H93.27c-3,0-4.24-.62-4.24-3.89V29.58H86V27h3V24.84A5,5,0,0,1,92,20.52Z" transform="translate(-0.6 -1)"/><path id="_Compound_Path_6" data-name="&lt;Compound Path&gt;" class="cls-1" d="M114.31,44.72a3.93,3.93,0,0,1-2.1.48c-1.51,0-2.48-.82-2.48-2.75a7.88,7.88,0,0,1-6.26,2.75c-3.23,0-5.88-1.44-5.88-5,0-4,3-4.88,6-5.47,3.23-.62,6-.41,6-2.61,0-2.55-2.1-3-4-3s-3.2.49-4,1.73c-1,1.56-3.35,1.64-3.35,1.64.17-4.4,3.57-5.95,7.53-5.95,3.2,0,6.68.72,6.68,4.88v9.16c0,1.38,0,2,.93,2a2.44,2.44,0,0,0,.89-.17Zm-4.75-9.12c-1.13.83-3.33.86-5.3,1.21s-3.58,1-3.58,3.2c0,1.93,1.66,2.61,3.45,2.61,3.85,0,5.43-2.41,5.43-4Z" transform="translate(-0.6 -1)"/><path id="_Path_" data-name="&lt;Path&gt;" class="cls-1" d="M65,1C53.42,2,43.41,5,34.18,12.42c-8.53,6.82-17.6,15.85-21.8,26.38C11.27,35.92,4.05,22,1.47,18.3a.47.47,0,0,0-.81.48C3,23.16,10.36,39.94,10.84,44.37c.16,1.51,2.52,1.34,2.88,0,2.8-10.47,11.75-21,19.9-28.3C43,7.74,52.12,3.9,65.26,2.26,66.14,2.15,66.39.9,65,1Z" transform="translate(-0.6 -1)"/></g><path class="cls-2" d="M12,53.39l3.92,6h0v-6h.94v7.45H15.8l-3.89-6h0v6H11V53.39Z" transform="translate(-0.6 -1)"/><path class="cls-2" d="M22.34,60.84V60h0a1.84,1.84,0,0,1-.72.74,2.12,2.12,0,0,1-1,.23,2.31,2.31,0,0,1-.89-.14,1.26,1.26,0,0,1-.57-.4,1.45,1.45,0,0,1-.31-.62,3.26,3.26,0,0,1-.09-.8V55.45h.89V59.1a1,1,0,0,0,1.09,1.08,1.92,1.92,0,0,0,.71-.12,1.36,1.36,0,0,0,.49-.36,1.62,1.62,0,0,0,.3-.53,2.43,2.43,0,0,0,.1-.68v-3h.88v5.39Z" transform="translate(-0.6 -1)"/><path class="cls-2" d="M27.18,55.45v.78H26.11v3.35a.9.9,0,0,0,0,.25.24.24,0,0,0,.1.14.4.4,0,0,0,.21.07l.33,0h.41v.78H26.5a3.33,3.33,0,0,1-.59-.05.78.78,0,0,1-.39-.17.74.74,0,0,1-.23-.35,2.09,2.09,0,0,1-.07-.61V56.23H24.3v-.78h.92V53.83h.89v1.62Z" transform="translate(-0.6 -1)"/><path class="cls-2" d="M29.33,55.45v1.13h0a2.53,2.53,0,0,1,.79-1,2,2,0,0,1,1.19-.29v.94a2.42,2.42,0,0,0-.9.15,1.42,1.42,0,0,0-.61.42,1.85,1.85,0,0,0-.33.69,3.63,3.63,0,0,0-.11.92v2.4H28.5V55.45Z" transform="translate(-0.6 -1)"/><path class="cls-2" d="M32.42,54.48V53.39h.89v1.09Zm.89,1v5.39h-.89V55.45Z" transform="translate(-0.6 -1)"/><path class="cls-2" d="M37.35,55.45v.78H36.28v3.35a.85.85,0,0,0,0,.25.23.23,0,0,0,.09.14.4.4,0,0,0,.21.07l.34,0h.4v.78h-.67a3.25,3.25,0,0,1-.59-.05.77.77,0,0,1-.4-.17.66.66,0,0,1-.22-.35,2,2,0,0,1-.08-.61V56.23h-.92v-.78h.92V53.83h.89v1.62Z" transform="translate(-0.6 -1)"/><path class="cls-2" d="M38.75,54.48V53.39h.89v1.09Zm.89,1v5.39h-.89V55.45Z" transform="translate(-0.6 -1)"/><path class="cls-2" d="M41.26,57a2.33,2.33,0,0,1,.5-.9,2.39,2.39,0,0,1,.82-.6,2.68,2.68,0,0,1,1.13-.22,2.65,2.65,0,0,1,1.13.22A2.39,2.39,0,0,1,46.16,57a3.68,3.68,0,0,1,0,2.21,2.55,2.55,0,0,1-.5.9,2.33,2.33,0,0,1-.82.59,2.81,2.81,0,0,1-1.13.21,2.85,2.85,0,0,1-1.13-.21,2.24,2.24,0,0,1-.82-.59,2.4,2.4,0,0,1-.5-.9,3.68,3.68,0,0,1,0-2.21Zm.9,2a1.67,1.67,0,0,0,.36.64,1.5,1.5,0,0,0,.54.39,1.57,1.57,0,0,0,.65.13,1.61,1.61,0,0,0,.65-.13,1.69,1.69,0,0,0,.54-.39,2,2,0,0,0,.36-.64,3,3,0,0,0,0-1.74,1.88,1.88,0,0,0-.36-.64,1.58,1.58,0,0,0-.54-.4,1.62,1.62,0,0,0-.65-.14,1.58,1.58,0,0,0-.65.14,1.41,1.41,0,0,0-.54.4,1.6,1.6,0,0,0-.36.64,3,3,0,0,0,0,1.74Z" transform="translate(-0.6 -1)"/><path class="cls-2" d="M48.57,55.45v.85h0a1.87,1.87,0,0,1,1.75-1,2.3,2.3,0,0,1,.89.15,1.34,1.34,0,0,1,.57.4,1.51,1.51,0,0,1,.31.62,3.32,3.32,0,0,1,.09.8v3.55h-.89V57.19A1,1,0,0,0,51,56.4a1.06,1.06,0,0,0-.8-.3,1.91,1.91,0,0,0-.71.13,1.33,1.33,0,0,0-.49.35,1.78,1.78,0,0,0-.3.54,2.09,2.09,0,0,0-.1.67v3.05h-.89V55.45Z" transform="translate(-0.6 -1)"/><path class="cls-2" d="M58.08,53.39v2.79h0a1.33,1.33,0,0,1,.68-.66,2.71,2.71,0,0,1,1-.2,2.5,2.5,0,0,1,1.09.23,2.22,2.22,0,0,1,.77.62,2.74,2.74,0,0,1,.46.9,3.55,3.55,0,0,1,.16,1.09,3.81,3.81,0,0,1-.15,1.08,2.56,2.56,0,0,1-.46.9,2.19,2.19,0,0,1-.77.6,2.6,2.6,0,0,1-1.08.21,2.57,2.57,0,0,1-.45,0,2.14,2.14,0,0,1-.48-.13,1.7,1.7,0,0,1-.45-.26,1.25,1.25,0,0,1-.36-.4h0v.72H57.2V53.39Zm3.19,4a1.8,1.8,0,0,0-.3-.64,1.5,1.5,0,0,0-.52-.45,1.6,1.6,0,0,0-.75-.17,1.5,1.5,0,0,0-.76.18,1.44,1.44,0,0,0-.51.47,1.93,1.93,0,0,0-.29.65,3.06,3.06,0,0,0-.09.74,2.73,2.73,0,0,0,.1.76,2,2,0,0,0,.29.66A1.54,1.54,0,0,0,59,60a1.85,1.85,0,0,0,1.55,0,1.5,1.5,0,0,0,.5-.47,2.35,2.35,0,0,0,.27-.67,3.94,3.94,0,0,0,.08-.77A2.64,2.64,0,0,0,61.27,57.36Z" transform="translate(-0.6 -1)"/><path class="cls-2" d="M65.84,61.56a7.37,7.37,0,0,1-.31.67,1.74,1.74,0,0,1-.33.44,1.11,1.11,0,0,1-.41.25,1.62,1.62,0,0,1-.52.08L64,63a1.32,1.32,0,0,1-.3-.07v-.82a.88.88,0,0,0,.26.09.92.92,0,0,0,.26,0,.8.8,0,0,0,.45-.13.81.81,0,0,0,.28-.37l.36-.91-2.14-5.36h1l1.57,4.41h0l1.52-4.41h.93Z" transform="translate(-0.6 -1)"/><path class="cls-2" d="M76,53.39a2.32,2.32,0,0,1,1.71.58,2.6,2.6,0,0,1,0,3.25,2.27,2.27,0,0,1-1.71.57H73.71v3.05h-1V53.39ZM75.65,57a1.72,1.72,0,0,0,1.23-.35,1.29,1.29,0,0,0,.39-1,1.32,1.32,0,0,0-.39-1,1.83,1.83,0,0,0-1.23-.34H73.71V57Z" transform="translate(-0.6 -1)"/><path class="cls-2" d="M80.63,53.39v7.45h-.88V53.39Z" transform="translate(-0.6 -1)"/><path class="cls-2" d="M86.19,60.5a2.47,2.47,0,0,1-1.52.45,2.73,2.73,0,0,1-1.12-.2,2.25,2.25,0,0,1-.8-.59,2.45,2.45,0,0,1-.49-.9,4.86,4.86,0,0,1-.18-1.13A3.39,3.39,0,0,1,82.27,57a2.73,2.73,0,0,1,.53-.89,2.32,2.32,0,0,1,.8-.58,2.45,2.45,0,0,1,1-.21,2.17,2.17,0,0,1,1.19.3,2.37,2.37,0,0,1,.76.75,2.78,2.78,0,0,1,.4,1,4.63,4.63,0,0,1,.09,1H83a1.84,1.84,0,0,0,.09.67,1.56,1.56,0,0,0,.3.57,1.52,1.52,0,0,0,.53.39,2,2,0,0,0,.76.14,1.46,1.46,0,0,0,.92-.26,1.28,1.28,0,0,0,.48-.79H87A2.17,2.17,0,0,1,86.19,60.5ZM86,57a1.49,1.49,0,0,0-.32-.48,1.58,1.58,0,0,0-.48-.33,1.54,1.54,0,0,0-.61-.12,1.61,1.61,0,0,0-.63.12,1.43,1.43,0,0,0-.47.33,1.46,1.46,0,0,0-.31.49,1.89,1.89,0,0,0-.14.59h3.1A1.75,1.75,0,0,0,86,57Z" transform="translate(-0.6 -1)"/><path class="cls-2" d="M93.12,60.82a1.23,1.23,0,0,1-.63.13.75.75,0,0,1-.55-.19.83.83,0,0,1-.21-.63,2.08,2.08,0,0,1-.85.63,2.76,2.76,0,0,1-1,.19,2.61,2.61,0,0,1-.69-.08,1.49,1.49,0,0,1-.57-.26,1.32,1.32,0,0,1-.38-.46,1.65,1.65,0,0,1-.14-.7,1.54,1.54,0,0,1,.16-.75,1.33,1.33,0,0,1,.41-.47A1.65,1.65,0,0,1,89.2,58l.68-.16.69-.11a3,3,0,0,0,.58-.1,1,1,0,0,0,.4-.2.51.51,0,0,0,.14-.38.84.84,0,0,0-.11-.47.66.66,0,0,0-.28-.27,1.37,1.37,0,0,0-.39-.13,3,3,0,0,0-.42,0,1.82,1.82,0,0,0-.94.22.9.9,0,0,0-.4.81h-.89a1.81,1.81,0,0,1,.21-.85,1.58,1.58,0,0,1,.5-.56,2.39,2.39,0,0,1,.71-.31,4,4,0,0,1,.86-.09,5.84,5.84,0,0,1,.73,0,1.92,1.92,0,0,1,.65.22,1.2,1.2,0,0,1,.47.45,1.43,1.43,0,0,1,.18.76v2.77a2.54,2.54,0,0,0,0,.46c0,.09.11.14.25.14a.93.93,0,0,0,.27,0Zm-1.44-2.77a1,1,0,0,1-.44.19c-.18,0-.37.07-.57.09l-.59.08a2.1,2.1,0,0,0-.55.15,1,1,0,0,0-.39.3.82.82,0,0,0-.15.52.7.7,0,0,0,.09.37.78.78,0,0,0,.23.25,1,1,0,0,0,.33.13,1.61,1.61,0,0,0,.39,0,2,2,0,0,0,.75-.12,1.73,1.73,0,0,0,.52-.3,1.17,1.17,0,0,0,.29-.39,1,1,0,0,0,.09-.4Z" transform="translate(-0.6 -1)"/><path class="cls-2" d="M95,59.63a.87.87,0,0,0,.33.33,1.33,1.33,0,0,0,.46.17,2.24,2.24,0,0,0,.52,0l.44,0a1.61,1.61,0,0,0,.42-.11.8.8,0,0,0,.32-.25.61.61,0,0,0,.13-.41.6.6,0,0,0-.26-.52,2.17,2.17,0,0,0-.65-.29c-.27-.07-.55-.14-.86-.2a4.65,4.65,0,0,1-.85-.25,1.89,1.89,0,0,1-.65-.45,1.22,1.22,0,0,1-.26-.82,1.27,1.27,0,0,1,.18-.69,1.54,1.54,0,0,1,.47-.48,2.35,2.35,0,0,1,.65-.27,3,3,0,0,1,.72-.09,4.44,4.44,0,0,1,.84.08,1.8,1.8,0,0,1,.68.27,1.42,1.42,0,0,1,.48.52,1.94,1.94,0,0,1,.21.82h-.89a.81.81,0,0,0-.14-.43A.78.78,0,0,0,97,56.3a1.32,1.32,0,0,0-.39-.15,2.1,2.1,0,0,0-.43,0,2.69,2.69,0,0,0-.4,0,1.79,1.79,0,0,0-.37.11.84.84,0,0,0-.27.21.53.53,0,0,0-.11.34.48.48,0,0,0,.16.38,1.29,1.29,0,0,0,.41.25,2.94,2.94,0,0,0,.57.17l.62.14c.23.05.44.11.66.18a2.24,2.24,0,0,1,.56.27,1.41,1.41,0,0,1,.4.44,1.26,1.26,0,0,1,.15.64,1.49,1.49,0,0,1-.21.82,1.55,1.55,0,0,1-.53.52,2.42,2.42,0,0,1-.74.28,4.54,4.54,0,0,1-.82.07,3.89,3.89,0,0,1-.85-.09,1.88,1.88,0,0,1-.72-.31,1.5,1.5,0,0,1-.5-.56,1.84,1.84,0,0,1-.21-.85h.88A1,1,0,0,0,95,59.63Z" transform="translate(-0.6 -1)"/><path class="cls-2" d="M103.52,60.84V60h0a1.72,1.72,0,0,1-.72.74,2.09,2.09,0,0,1-1,.23,2.34,2.34,0,0,1-.89-.14,1.37,1.37,0,0,1-.57-.4,1.45,1.45,0,0,1-.31-.62,3.26,3.26,0,0,1-.09-.8V55.45h.89V59.1a1,1,0,0,0,1.1,1.08,1.86,1.86,0,0,0,.7-.12,1.39,1.39,0,0,0,.5-.36,1.44,1.44,0,0,0,.29-.53,2.11,2.11,0,0,0,.1-.68v-3h.89v5.39Z" transform="translate(-0.6 -1)"/><path class="cls-2" d="M106.86,55.45v1.13h0a2.46,2.46,0,0,1,.8-1,2,2,0,0,1,1.19-.29v.94a2.44,2.44,0,0,0-.91.15,1.48,1.48,0,0,0-.61.42,1.85,1.85,0,0,0-.33.69,3.65,3.65,0,0,0-.1.92v2.4H106V55.45Z" transform="translate(-0.6 -1)"/><path class="cls-2" d="M113.53,60.5A2.47,2.47,0,0,1,112,61a2.73,2.73,0,0,1-1.12-.2,2.17,2.17,0,0,1-.8-.59,2.45,2.45,0,0,1-.49-.9,4,4,0,0,1-.18-1.13,3.15,3.15,0,0,1,.19-1.13,2.71,2.71,0,0,1,.52-.89,2.45,2.45,0,0,1,1.83-.79,2.19,2.19,0,0,1,1.19.3,2.37,2.37,0,0,1,.76.75,3,3,0,0,1,.4,1,4.63,4.63,0,0,1,.09,1h-4a2.09,2.09,0,0,0,.08.67,1.94,1.94,0,0,0,.3.57,1.57,1.57,0,0,0,.54.39,1.94,1.94,0,0,0,.76.14,1.49,1.49,0,0,0,.92-.26,1.28,1.28,0,0,0,.48-.79h.87A2.21,2.21,0,0,1,113.53,60.5ZM113.32,57a1.6,1.6,0,0,0-.81-.81,1.48,1.48,0,0,0-.61-.12,1.56,1.56,0,0,0-.62.12,1.43,1.43,0,0,0-.47.33,1.66,1.66,0,0,0-.32.49,1.88,1.88,0,0,0-.13.59h3.1A2,2,0,0,0,113.32,57Z" transform="translate(-0.6 -1)"/></svg>