<?xml version="1.0" encoding="utf-8"?>
<!-- Generator: Adobe Illustrator 16.0.0, SVG Export Plug-In . SVG Version: 6.00 Build 0)  -->
<!DOCTYPE svg PUBLIC "-//W3C//DTD SVG 1.1//EN" "http://www.w3.org/Graphics/SVG/1.1/DTD/svg11.dtd">
<svg version="1.1" id="Calque_1" xmlns="http://www.w3.org/2000/svg" xmlns:xlink="http://www.w3.org/1999/xlink" x="0px" y="0px"
	 width="60px" height="60px" viewBox="0 0 60 60" enable-background="new 0 0 60 60" xml:space="preserve">
<g id="Layer_1" display="none">
	<g display="inline">
		<g opacity="0.3">
			<path fill="#010101" stroke="#010101" stroke-miterlimit="10" d="M300,588c158,0,287-129,287-287c0-157-129-286-287-286
				S13,144,13,302S142,588,300,588z M300,45c142,0,257,115,257,257S442,559,300,559S43,444,43,302S159,45,300,45z"/>
			<path fill="#010101" stroke="#010101" stroke-miterlimit="10" d="M343,434c4,0,8-1,10-4c6-6,6-15,0-21L248,300l106-103
				c6-6,6-15,0-21s-15-6-21,0L216,289c-6,6-6,15,0,21l116,120C335,433,339,434,343,434z"/>
		</g>
		<g>
			<path fill="#FFFFFF" d="M294,583c158,0,287-129,287-287S452,9,294,9S8,138,8,296S136,583,294,583z M294,39c142,0,257,115,257,257
				S436,553,294,553S37,438,37,296C38,154,153,39,294,39z"/>
			<path fill="#FFFFFF" d="M337,429c4,0,8-1,10-4c6-6,6-15,0-21L242,294l106-103c6-6,6-15,0-21s-15-6-21,0L210,283c-6,6-6,15,0,21
				l116,120C329,427,333,429,337,429z"/>
		</g>
	</g>
</g>
<g id="Layer_2">
	<path opacity="0.9" fill="#FFFFFF" enable-background="new    " d="M38.477,54L17.239,32.666c-1.524-1.523-1.524-3.904,0-5.429
		L38.477,6l5.428,5.428L25.238,30l18.571,18.571L38.477,54z"/>
</g>
</svg>
