<?xml version="1.0" encoding="utf-8"?>
<!-- Generator: Adobe Illustrator 16.0.0, SVG Export Plug-In . SVG Version: 6.00 Build 0)  -->
<!DOCTYPE svg PUBLIC "-//W3C//DTD SVG 1.1//EN" "http://www.w3.org/Graphics/SVG/1.1/DTD/svg11.dtd">
<svg version="1.1" id="Layer_1" xmlns="http://www.w3.org/2000/svg" xmlns:xlink="http://www.w3.org/1999/xlink" x="0px" y="0px"
	 width="60px" height="60px" viewBox="467.458 303.574 60 60" enable-background="new 467.458 303.574 60 60" xml:space="preserve">
<g>
	<g opacity="0.3">
		<path fill="#010101" stroke="#010101" stroke-miterlimit="10" d="M497.458,362.324c15.828,0,28.75-12.922,28.75-28.749
			c0-15.727-12.922-28.649-28.75-28.649c-15.827,0-28.749,12.922-28.749,28.75C468.709,349.503,481.631,362.324,497.458,362.324z
			 M497.458,307.931c14.225,0,25.745,11.521,25.745,25.745s-11.52,25.745-25.745,25.745c-14.224,0-25.745-11.521-25.745-25.745
			S483.334,307.931,497.458,307.931z"/>
		<path fill="#010101" stroke="#010101" stroke-miterlimit="10" d="M501.766,346.898c0.401,0,0.802-0.101,1.003-0.4
			c0.6-0.602,0.6-1.503,0-2.104l-10.519-10.919l10.619-10.317c0.601-0.601,0.601-1.502,0-2.104c-0.602-0.601-1.503-0.601-2.104,0
			l-11.719,11.319c-0.601,0.601-0.601,1.502,0,2.104l11.62,12.021C500.964,346.798,501.365,346.898,501.766,346.898z"/>
	</g>
	<g>
		<path fill="#FFFFFF" d="M496.858,361.824c15.828,0,28.75-12.923,28.75-28.75c0-15.828-12.922-28.75-28.75-28.75
			s-28.65,12.922-28.65,28.75C468.208,348.901,481.03,361.824,496.858,361.824z M496.858,307.33
			c14.224,0,25.744,11.52,25.744,25.744s-11.52,25.745-25.744,25.745c-14.225,0-25.745-11.521-25.745-25.745
			C471.213,318.85,482.733,307.33,496.858,307.33z"/>
		<path fill="#FFFFFF" d="M501.165,346.396c0.4,0,0.802-0.1,1.002-0.399c0.602-0.602,0.602-1.503,0-2.104l-10.518-11.02
			l10.618-10.318c0.602-0.601,0.602-1.502,0-2.104c-0.601-0.602-1.503-0.602-2.104,0l-11.72,11.32c-0.602,0.601-0.602,1.502,0,2.103
			l11.62,12.021C500.364,346.196,500.764,346.396,501.165,346.396z"/>
	</g>
</g>
</svg>
